<svg width="125" height="39" viewBox="0 0 125 39" fill="none" xmlns="http://www.w3.org/2000/svg">
<path d="M1.84294 1.82933C1.84294 1.51651 0.992873 0.714052 0.727654 0.714052H0V0H4.23671L8.60943 10.9692H8.69784L13.295 0H17.0829V0.714052H16.4028C16.1376 0.714052 15.2875 1.51651 15.2875 1.82933V12.7577C15.2875 13.0706 16.1376 13.873 16.4028 13.873H17.0829V14.5939H11.4792V13.873H12.1933C12.4585 13.873 13.3086 13.0706 13.3086 12.7577V2.14216L7.99739 14.8047L2.7202 1.91774V12.7101C2.7202 13.023 3.57026 13.8254 3.83548 13.8254H4.54953V14.5395H0V13.8254H0.68005C0.945269 13.8254 1.79533 13.023 1.79533 12.7101L1.84294 1.82933Z" fill="#051C2C"/>
<path d="M23.21 8.33739C23.4753 6.86848 23.21 5.57639 21.5983 5.57639C19.7282 5.57639 18.7897 7.0929 18.7897 9.27586C18.7897 11.4588 20.1498 13.1113 22.2716 13.1113C22.8835 13.1745 23.4999 13.0454 24.035 12.7419C24.57 12.4384 24.9972 11.9756 25.257 11.418H25.8418C25.2162 13.4582 23.9649 14.7639 21.5983 14.7639C18.9733 14.7639 17.2732 12.5537 17.2732 9.8335C17.2732 6.80048 19.2793 4.79433 21.7819 4.79433C22.405 4.76377 23.0273 4.86965 23.6052 5.10458C24.1831 5.3395 24.7027 5.6978 25.1278 6.15443L23.7677 8.29659L23.21 8.33739Z" fill="#051C2C"/>
<path d="M42.2515 2.897C42.4121 2.89986 42.5716 2.87001 42.7203 2.80924C42.869 2.74848 43.0037 2.65808 43.1163 2.54355C43.229 2.42902 43.3171 2.29277 43.3753 2.14309C43.4336 1.99341 43.4608 1.83343 43.4552 1.67291C43.4641 1.51252 43.439 1.35206 43.3816 1.20201C43.3243 1.05196 43.2359 0.915699 43.1223 0.802112C43.0087 0.688524 42.8725 0.600166 42.7224 0.542805C42.5724 0.485445 42.4119 0.460371 42.2515 0.469221C42.0826 0.456642 41.913 0.479046 41.7532 0.535032C41.5933 0.591018 41.4468 0.679381 41.3227 0.794594C41.1986 0.909807 41.0995 1.04939 41.0318 1.20462C40.9641 1.35984 40.9292 1.52736 40.9292 1.69671C40.9292 1.86606 40.9641 2.03358 41.0318 2.18881C41.0995 2.34403 41.1986 2.48361 41.3227 2.59883C41.4468 2.71404 41.5933 2.8024 41.7532 2.85839C41.913 2.91438 42.0826 2.93678 42.2515 2.9242V2.897Z" fill="#051C2C"/>
<path d="M55.6349 13.8254C55.3696 13.8254 54.608 13.1454 54.608 12.8461V7.58256C54.624 7.23047 54.5673 6.87887 54.4413 6.5497C54.3153 6.22053 54.1229 5.92087 53.8759 5.66942C53.6289 5.41798 53.3328 5.22016 53.0059 5.08832C52.679 4.95648 52.3285 4.89345 51.9762 4.90316C50.2829 4.90316 49.392 5.88923 48.2767 7.04532L47.9163 5.07317H44.9309V5.75322H45.5089C45.7741 5.75322 46.5358 6.46728 46.5358 6.7393V12.7577C46.5358 13.0706 45.7741 13.737 45.5089 13.737H44.3528C44.0808 13.737 43.326 13.057 43.326 12.7577V5.07317H39.9257V5.75322H40.5037C40.7758 5.75322 41.5306 6.46728 41.5306 6.7393V12.7577C41.5306 13.0706 40.7758 13.737 40.5037 13.737H39.4429C38.79 13.4616 38.1983 13.0594 37.7019 12.5537L32.6424 5.84163L36.165 2.04695C36.7076 1.49175 37.3398 1.03194 38.0352 0.68685H38.7152V0H33.4516V0.714052H34.1657C34.4309 0.714052 35.281 1.69332 35.0565 1.95854L29.8542 7.79337V1.82933C29.8542 1.51651 30.6974 0.714052 30.9694 0.714052H31.6495V0H26.0187V0.714052H26.6987C26.9639 0.714052 27.814 1.51651 27.814 1.82933V12.7577C27.814 13.0706 26.9639 13.873 26.6987 13.873H26.0187V14.5939H31.6835V13.873H31.0034C30.7314 13.873 29.8882 13.0706 29.8882 12.7577V8.92226L31.3571 7.31054L36.3622 14.5939H49.8816V13.873H49.3444C49.0792 13.873 48.3175 13.193 48.3175 12.8869V8.02459C48.3175 7.40574 50.0584 6.06605 51.3981 6.06605C51.6079 6.05492 51.8176 6.08956 52.0126 6.16754C52.2077 6.24553 52.3834 6.365 52.5277 6.51768C52.6719 6.67036 52.7813 6.85259 52.8481 7.05173C52.9149 7.25087 52.9376 7.46217 52.9147 7.67096V12.8461C52.9147 13.159 52.153 13.8254 51.8878 13.8254H51.3505V14.5395H56.1721V13.8254H55.6349Z" fill="#051C2C"/>
<path d="M57.3758 11.2413C57.3758 12.1322 58.6679 14.0023 60.6741 14.0023C61.837 14.0023 62.5034 13.6011 62.5034 12.7102C62.5034 11.6425 61.5649 11.2821 60.7217 10.9285C60.0416 10.6564 59.518 10.4388 58.7563 10.0784C57.6003 9.54117 56.7162 8.78631 56.7162 7.49422C56.7162 5.79409 57.7431 4.81482 59.5724 4.81482C60.5993 4.81482 61.1773 5.30446 61.8914 5.30446C62.1566 5.30446 62.3334 5.26365 62.4218 5.03924H62.959V7.93625H62.381C62.251 7.26574 61.8981 6.65892 61.3795 6.21444C60.861 5.76996 60.2073 5.51396 59.5248 5.48807C58.4095 5.48807 57.9199 5.9777 57.9199 6.73256C57.9199 7.48742 58.4979 7.84784 59.4364 8.24907C60.1504 8.5619 60.6877 8.78631 61.4765 9.09913C62.5034 9.50036 63.6595 10.3028 63.6595 11.8193C63.6595 13.6011 62.4082 14.6755 60.6265 14.6755C59.4228 14.6755 58.7087 14.0907 57.9063 14.0907C57.7703 14.0758 57.6328 14.0969 57.5075 14.1518C57.3822 14.2067 57.2735 14.2935 57.1922 14.4035H56.7434V11.1053H57.3282L57.3758 11.2413Z" fill="#051C2C"/>
<path d="M64.2852 9.83355C64.2852 7.02494 66.2029 4.83518 68.6171 4.88278C69.0594 4.86624 69.5006 4.93947 69.9139 5.09806C70.3272 5.25665 70.704 5.49731 71.0218 5.80553C71.3395 6.11374 71.5916 6.48312 71.7627 6.89139C71.9338 7.29966 72.0204 7.73836 72.0173 8.18103L72.0581 8.86108L65.7677 9.35751C65.7677 11.2753 67.1278 13.1454 69.2019 13.1454C69.8078 13.2038 70.4169 13.0722 70.9445 12.7688C71.4722 12.4653 71.8923 12.0051 72.1465 11.4521H72.7654C72.1397 13.4922 70.9768 14.7979 68.6851 14.7979C66.0261 14.7639 64.2852 12.4857 64.2852 9.83355ZM70.4872 8.31703C70.664 6.95693 70.4396 5.63764 68.5695 5.63764C66.6993 5.63764 65.8493 7.24256 65.7609 8.71826L70.4872 8.31703Z" fill="#051C2C"/>
<path d="M73.7447 6.86857C73.4486 6.40763 73.0325 6.03615 72.541 5.7941H72.1398V5.07324H77.1313V5.75329H76.5533C76.2881 5.75329 75.7032 6.43334 75.7032 6.78017L77.893 11.8737L80.0352 6.83457C79.993 6.61182 79.8981 6.40238 79.7585 6.22374C79.619 6.0451 79.4387 5.90245 79.2327 5.8077H78.6478V5.07324H82.4425V5.75329H81.9937C81.7693 5.75329 81.1028 6.46734 80.8784 6.78017L77.6686 14.0499L75.302 19.2727L74.4587 18.8715L76.9545 13.6963L73.7447 6.86857Z" fill="#051C2C"/>
<path d="M28.1133 22.0744C28.1448 22.6639 28.3577 23.2293 28.7229 23.6931C29.0881 24.1569 29.5878 24.4965 30.1535 24.6653C32.0236 26.6715 34.3018 28.8137 36.2739 30.5954C36.8245 29.6655 37.0894 28.5941 37.0356 27.5148C37.0356 26.1547 36.1447 25.3726 34.7166 25.325V24.6449H39.8918V25.325H39.307C38.7109 25.6843 38.2552 26.236 38.0149 26.8891C38.0025 28.3408 37.5703 29.7579 36.7704 30.9694C37.7063 31.8084 38.687 32.5962 39.7082 33.3292H40.6058V34.0092H38.9941C38.322 34.0286 37.653 33.91 37.0285 33.6609C36.4039 33.4118 35.837 33.0374 35.3627 32.5607C34.7296 33.1606 33.9811 33.6255 33.1627 33.9271C32.3444 34.2287 31.4733 34.3608 30.6023 34.3153C29.4255 34.3556 28.2809 33.927 27.42 33.1236C26.5592 32.3201 26.0528 31.2077 26.012 30.0309C26.0102 29.1621 26.2205 28.306 26.6246 27.5368C27.0287 26.7677 27.6144 26.1088 28.3309 25.6174C27.5885 24.7778 27.186 23.6915 27.2021 22.5708C27.2021 20.4694 28.5622 19.3134 30.6839 19.3134C32.044 19.3134 32.7241 19.7554 33.3565 19.7554C33.6693 19.7554 33.8938 19.7554 34.0366 19.4902H34.6622V22.8904H34.0026C34.0026 21.9111 32.5745 19.9458 30.6023 19.9458C29.0518 19.9798 28.1133 20.7143 28.1133 22.0744ZM27.4877 29.0381C27.4877 31.1326 29.7182 33.1184 31.772 33.1184C32.9073 33.1495 34.0212 32.8053 34.941 32.1391C32.7235 30.2148 30.6229 28.1596 28.6506 25.9846C28.2506 26.3815 27.9399 26.8592 27.7393 27.3858C27.5388 27.9123 27.453 28.4757 27.4877 29.0381Z" fill="#051C2C"/>
<path d="M55.4989 24.6178C55.4989 23.1013 53.8055 20.0683 51.0853 20.0683C48.5896 20.0683 47.073 21.4284 46.801 24.7539C46.7285 25.9866 46.7444 27.2229 46.8486 28.4533C46.8965 29.7227 47.4434 30.9218 48.3704 31.7902C49.2974 32.6587 50.5296 33.1262 51.7994 33.0913C54.2952 33.0913 55.5465 32.0236 56.4849 30.1058H57.2398C56.8486 31.3473 56.0603 32.4257 54.9962 33.1753C53.9321 33.9248 52.6512 34.3039 51.3506 34.2541C47.1615 34.2541 44.4821 30.8539 44.4821 26.6716C44.4821 22.4893 46.937 19.191 50.9969 19.191C52.5542 19.191 53.5403 19.8167 54.6556 19.8167C54.8258 19.8297 54.9966 19.7998 55.1522 19.7297C55.3078 19.6596 55.4434 19.5515 55.5465 19.4155H56.0837V24.5906H55.4989V24.6178Z" fill="#051C2C"/>
<path d="M58.2191 29.3034C58.2191 26.2228 60.4088 24.3051 62.9046 24.3051C65.4004 24.3051 67.5902 26.2228 67.5902 29.3034C67.5902 32.384 65.4004 34.3154 62.9046 34.3154C62.2641 34.3062 61.6319 34.1679 61.0461 33.9086C60.4603 33.6493 59.9328 33.2744 59.4953 32.8065C59.0578 32.3385 58.7193 31.787 58.5 31.1851C58.2807 30.5832 58.1852 29.9432 58.2191 29.3034ZM65.6996 30.8675C65.8356 29.7996 65.8356 28.7188 65.6996 27.6509C65.5228 26.1344 64.6728 25.1075 62.9386 25.1075C61.2045 25.1075 60.3952 26.1344 60.1708 27.6101C60.0348 28.6757 60.0348 29.7543 60.1708 30.8199C60.3952 32.2888 61.1977 33.3633 62.9386 33.3633C64.6796 33.3633 65.5364 32.3364 65.7132 30.8675H65.6996Z" fill="#051C2C"/>
<path d="M82.966 32.2752C82.966 32.588 83.6801 33.2613 83.9453 33.2613H84.3941V33.9413H79.6338V33.2613H80.1642C80.4362 33.2613 81.1503 32.5812 81.1503 32.2752V27.0728C81.1824 26.8678 81.1672 26.6581 81.1057 26.4598C81.0443 26.2616 80.9383 26.08 80.7959 25.929C80.6534 25.7781 80.4783 25.6617 80.284 25.5888C80.0896 25.516 79.8812 25.4886 79.6746 25.5087C78.4301 25.5087 76.9136 26.7192 76.9136 27.3381V32.2752C76.9136 32.588 77.5936 33.2613 77.8929 33.2613H78.4301V33.9413H73.6085V33.2613H74.1254C74.3906 33.2613 75.1047 32.5812 75.1047 32.2752V27.0728C75.1298 26.8655 75.1083 26.6552 75.0417 26.4572C74.9751 26.2593 74.8651 26.0787 74.7197 25.9288C74.5744 25.7788 74.3973 25.6633 74.2015 25.5906C74.0057 25.5179 73.7961 25.49 73.5881 25.5087C72.3368 25.5087 70.8203 26.76 70.8203 27.4265V32.3364C70.8203 32.6492 71.5344 33.3157 71.8064 33.3157H72.3368V33.9957H67.5221V33.3157H68.0593C68.3246 33.3157 69.0386 32.6356 69.0386 32.3364V26.2704C69.0386 25.9576 68.3246 25.2911 68.0593 25.2911H67.5221V24.611H70.4191L70.8203 26.4404C71.8948 25.2775 72.6089 24.4002 74.2614 24.4002C74.8607 24.3503 75.4561 24.5351 75.9217 24.9157C76.3874 25.2964 76.6869 25.8431 76.7572 26.4404C77.9133 25.2775 78.6749 24.475 80.2322 24.475C80.5834 24.4628 80.9332 24.5244 81.259 24.6559C81.5848 24.7875 81.8794 24.9859 82.1236 25.2385C82.3679 25.4911 82.5563 25.7921 82.6769 26.1222C82.7974 26.4522 82.8472 26.8039 82.8232 27.1544V32.2752H82.966Z" fill="#051C2C"/>
<path d="M87.1688 24.577L87.4816 26.4947C87.7649 25.8249 88.2449 25.2568 88.8582 24.8658C89.4714 24.4748 90.189 24.2792 90.9158 24.305C93.2348 24.305 94.6153 26.2227 94.6153 29.1265C94.6153 32.0304 93.0104 34.2065 90.739 34.2065C90.0761 34.266 89.4111 34.118 88.8361 33.783C88.261 33.4479 87.8043 32.9424 87.5292 32.3364V36.8383C87.5292 37.1511 88.284 37.8244 88.5085 37.8244H89.1341V38.5044H84.1357V37.8244H84.7614C85.0266 37.8244 85.7407 37.1443 85.7407 36.8383V26.2703C85.7407 25.9575 85.0266 25.2911 84.7614 25.2911H84.1357V24.611L87.1688 24.577ZM87.4816 27.9773V30.507C87.4816 31.2285 87.7682 31.9204 88.2783 32.4305C88.7884 32.9407 89.4803 33.2272 90.2018 33.2272C91.8067 33.2272 92.5684 32.2004 92.786 30.7315C92.922 29.8002 92.922 28.8541 92.786 27.9229C92.6092 26.4063 91.7659 25.4679 90.4262 25.4679C88.8213 25.4203 87.9304 26.5356 87.4816 28.0113V27.9773Z" fill="#051C2C"/>
<path d="M115.133 33.3156C114.867 33.3156 114.112 32.6356 114.112 32.3363V27.0728C114.127 26.7209 114.07 26.3698 113.944 26.0411C113.817 25.7123 113.625 25.4131 113.378 25.1619C113.131 24.9106 112.836 24.7128 112.509 24.5806C112.183 24.4484 111.833 24.3847 111.481 24.3934C109.781 24.3934 108.89 25.3794 107.774 26.5355L107.448 24.6178H104.456V25.2978H105.041C105.306 25.2978 106.061 26.0119 106.061 26.2839V32.2751C106.061 32.588 105.306 33.2612 105.041 33.2612H103.878C103.612 33.2612 102.851 32.5812 102.851 32.2751V27.1612C102.851 25.291 101.334 24.3526 99.3282 24.3526C98.628 24.3079 97.9266 24.4162 97.2725 24.6699C96.6184 24.9235 96.0273 25.3165 95.5403 25.8215L96.7848 27.7392H97.4648C96.7508 26.1343 97.2812 25.0666 98.8861 25.0666C100.491 25.0666 101.117 25.8215 101.117 27.1612V28.3241L98.6685 28.8137C97.3084 29.0789 95.5879 29.7522 95.5879 31.6223C95.5724 31.951 95.6227 32.2794 95.736 32.5884C95.8493 32.8973 96.0232 33.1805 96.2475 33.4213C96.4718 33.662 96.7419 33.8555 97.0421 33.9904C97.3422 34.1252 97.6663 34.1987 97.9953 34.2065C99.3554 34.2065 100.403 33.0912 101.164 32.1119L101.389 34.0297H109.413V33.3496H108.883C108.611 33.3496 107.856 32.6696 107.856 32.3704V27.474C107.856 26.8483 109.597 25.5086 110.93 25.5086C111.14 25.4986 111.35 25.5341 111.545 25.6129C111.74 25.6917 111.915 25.8118 112.06 25.965C112.204 26.1182 112.313 26.3008 112.38 26.5003C112.446 26.6997 112.469 26.9113 112.446 27.1204V32.2751C112.446 32.588 111.691 33.2612 111.426 33.2612H110.848V33.9413H115.663V33.2612H115.126L115.133 33.3156ZM101.083 31.2755C100.681 31.9555 99.7226 32.9212 98.7637 32.9212C98.5627 32.9259 98.3628 32.8896 98.1763 32.8147C97.9897 32.7397 97.8204 32.6275 97.6785 32.485C97.5366 32.3425 97.4253 32.1727 97.3511 31.9858C97.277 31.7989 97.2416 31.5989 97.2472 31.3979C97.2472 30.4594 97.6484 29.8406 98.8113 29.5277L101.083 28.9429V31.2687V31.2755Z" fill="#051C2C"/>
<path d="M116.289 26.3587C115.992 25.8996 115.576 25.5303 115.085 25.291H114.684V24.611H119.689V25.291H119.111C118.845 25.291 118.267 25.9711 118.267 26.3179L120.45 31.3571L122.593 26.3179C122.555 26.0932 122.463 25.8815 122.322 25.7021C122.182 25.5227 121.999 25.3813 121.79 25.291H121.205V24.611H125V25.291H124.551C124.333 25.291 123.66 26.0051 123.436 26.3179L120.226 33.5876L117.866 38.8036L117.009 38.3956L119.505 33.2204L116.289 26.3587Z" fill="#051C2C"/>
</svg>
