<svg width="36" height="23" viewBox="0 0 36 23" fill="none" xmlns="http://www.w3.org/2000/svg">
<path fill-rule="evenodd" clip-rule="evenodd" d="M34.2083 3.35332H27.3886C27.1034 3.35332 26.8721 3.58466 26.8721 3.87036C26.8721 4.15551 27.1034 4.38685 27.3886 4.38685H30.1164L23.0425 14.0315L18.8185 8.6874C18.8147 8.68296 18.8147 8.68296 18.8102 8.67908L18.798 8.66687L18.5168 8.30683L20.1533 6.29414L20.1661 6.27805L20.3769 6.02175C20.3974 5.99678 20.4141 5.97182 20.4263 5.94741C20.7774 5.44312 20.9799 4.82733 20.9799 4.16605C20.9799 2.42187 19.5586 1 17.8144 1C16.0658 1 14.6484 2.42187 14.6484 4.16605C14.6484 4.83566 14.8553 5.45533 15.2065 5.9635C15.227 5.99234 15.2436 6.02175 15.2686 6.05059L15.4833 6.3069L17.1692 8.32347V8.32791L16.9751 8.56757L12.5902 14.052L5.50359 4.38685H8.33568C8.62138 4.38685 8.85272 4.15551 8.85272 3.87036C8.85272 3.58466 8.62138 3.35332 8.33568 3.35332H1.51649C1.23134 3.35332 1 3.58466 1 3.87036C1 4.15551 1.23134 4.38685 1.51649 4.38685H4.22652L11.9245 14.8869L10.2136 17.0316L10.1392 17.1226C10.1187 17.1476 10.1021 17.172 10.0898 17.197C9.72204 17.6846 9.50679 18.2965 9.50679 18.9534C9.50679 20.5988 10.846 21.9374 12.4909 21.9374C14.1358 21.9374 15.475 20.5988 15.475 18.9534C15.475 18.2799 15.252 17.6558 14.8631 17.1559C14.8631 17.1515 14.8592 17.1432 14.8553 17.1393L14.7932 17.0566L13.2226 14.9158L17.7772 9.21609L17.8433 9.13343L17.9753 9.29487L18.0125 9.33592L22.4101 14.8952L20.7735 17.1271C20.7608 17.1432 20.7525 17.1559 20.7486 17.172C20.7364 17.1803 20.7319 17.1886 20.7319 17.197C20.3602 17.689 20.1494 18.3004 20.1494 18.9534C20.1494 20.5988 21.4886 21.9374 23.1335 21.9374C24.7784 21.9374 26.1171 20.5988 26.1171 18.9534C26.1171 18.3004 25.9068 17.6929 25.5384 17.2014C25.5223 17.1764 25.5096 17.1515 25.4891 17.1271L25.423 17.0444L23.7077 14.8742L31.3979 4.38685H34.2083C34.4935 4.38685 34.7248 4.15551 34.7248 3.87036C34.7248 3.58466 34.4935 3.35332 34.2083 3.35332ZM12.7267 15.9822L13.9955 17.7136L14.0243 17.7513C14.2845 18.0814 14.4415 18.4992 14.4415 18.9535C14.4415 20.0325 13.5655 20.9046 12.491 20.9046C11.4164 20.9046 10.5404 20.0325 10.5404 18.9535C10.5404 18.5075 10.6891 18.0981 10.9454 17.7674L11.0114 17.6848L12.3756 15.9739H12.3795L12.557 15.7509L12.7267 15.9822ZM17.6819 7.32746L16.215 5.57495L16.1363 5.47565C15.8511 5.11616 15.6819 4.65737 15.6819 4.16584C15.6819 2.99196 16.6361 2.03277 17.8144 2.03277C18.9878 2.03277 19.947 2.99196 19.947 4.16584C19.947 4.60799 19.8105 5.02518 19.5747 5.36858L19.5503 5.39743C19.5048 5.46733 19.4466 5.53778 19.385 5.59992L17.8599 7.48002L17.8516 7.46781L17.8266 7.5011L17.6819 7.32746ZM23.2617 15.9779H23.2656L24.6297 17.7054L24.6791 17.767C24.9354 18.0977 25.0841 18.5071 25.0841 18.9531C25.0841 20.0321 24.2081 20.9042 23.1335 20.9042C22.059 20.9042 21.1824 20.0321 21.1824 18.9531C21.1824 18.4949 21.3439 18.0732 21.6085 17.7382L21.629 17.7132L22.8939 15.9818H22.8978L23.0753 15.7377L23.2617 15.9779Z" fill="#2F83DE"/>
<path d="M30.1164 4.38685L30.5696 4.71928L31.2257 3.82477H30.1164V4.38685ZM23.0425 14.0315L22.6016 14.38L23.0593 14.9591L23.4958 14.3639L23.0425 14.0315ZM18.8185 8.6874L19.2595 8.33886L19.2508 8.32784L19.2416 8.31727L18.8185 8.6874ZM18.8102 8.67908L18.4128 9.07654L18.426 9.08977L18.4401 9.10209L18.8102 8.67908ZM18.798 8.66687L18.3551 9.0129L18.3763 9.04001L18.4006 9.06433L18.798 8.66687ZM18.5168 8.30683L18.0806 7.95222L17.798 8.29982L18.0738 8.65286L18.5168 8.30683ZM20.1533 6.29414L20.5895 6.64877L20.5937 6.64342L20.1533 6.29414ZM20.1661 6.27805L19.7319 5.92094L19.7257 5.92876L20.1661 6.27805ZM20.3769 6.02175L20.811 6.3788L20.811 6.37873L20.3769 6.02175ZM20.4263 5.94741L19.965 5.6262L19.9417 5.65962L19.9235 5.69604L20.4263 5.94741ZM15.2065 5.9635L14.744 6.28307L14.7485 6.28936L15.2065 5.9635ZM15.2686 6.05059L15.6995 5.68961L15.6936 5.68278L15.2686 6.05059ZM15.4833 6.3069L15.9145 5.94637L15.9142 5.94596L15.4833 6.3069ZM17.1692 8.32347H17.7313V8.11946L17.6005 7.96295L17.1692 8.32347ZM17.1692 8.32791L17.606 8.68174L17.7313 8.52703V8.32791H17.1692ZM16.9751 8.56757L16.5383 8.21373L16.536 8.21657L16.9751 8.56757ZM12.5902 14.052L12.1369 14.3843L12.5709 14.9762L13.0292 14.403L12.5902 14.052ZM5.50359 4.38685V3.82477H4.39449L5.0503 4.71921L5.50359 4.38685ZM4.22652 4.38685L4.67983 4.05451L4.5114 3.82477H4.22652V4.38685ZM11.9245 14.8869L12.3639 15.2374L12.632 14.9013L12.3778 14.5546L11.9245 14.8869ZM10.2136 17.0316L10.6489 17.3873L10.653 17.3822L10.2136 17.0316ZM10.1392 17.1226L10.5734 17.4796L10.5745 17.4783L10.1392 17.1226ZM10.0898 17.197L10.5386 17.5354L10.5711 17.4923L10.5948 17.4438L10.0898 17.197ZM14.8631 17.1559H14.301V17.3488L14.4194 17.5011L14.8631 17.1559ZM14.8553 17.1393L14.406 17.477L14.4298 17.5087L14.4578 17.5367L14.8553 17.1393ZM14.7932 17.0566L14.3399 17.3891L14.3439 17.3943L14.7932 17.0566ZM13.2226 14.9158L12.7835 14.5649L12.5148 14.9012L12.7694 15.2482L13.2226 14.9158ZM17.7772 9.21609L18.2164 9.56698L18.2164 9.56686L17.7772 9.21609ZM17.8433 9.13343L18.2784 8.77758L17.8381 8.23925L17.4041 8.78266L17.8433 9.13343ZM17.9753 9.29487L17.5402 9.65072L17.5491 9.66165L17.5586 9.67212L17.9753 9.29487ZM18.0125 9.33592L18.4533 8.98721L18.4417 8.97254L18.4291 8.95867L18.0125 9.33592ZM22.4101 14.8952L22.8634 15.2276L23.1166 14.8823L22.8509 14.5465L22.4101 14.8952ZM20.7735 17.1271L21.2139 17.4763L21.2205 17.468L21.2268 17.4594L20.7735 17.1271ZM20.7486 17.172L21.0652 17.6364L21.2442 17.5144L21.295 17.3039L20.7486 17.172ZM20.7319 17.197L21.1804 17.5357L21.294 17.3854V17.197H20.7319ZM25.5384 17.2014L25.066 17.5059L25.0767 17.5226L25.0886 17.5385L25.5384 17.2014ZM25.4891 17.1271L25.0499 17.4778L25.0543 17.4834L25.0589 17.4888L25.4891 17.1271ZM25.423 17.0444L24.9821 17.3929L24.9838 17.3952L25.423 17.0444ZM23.7077 14.8742L23.2544 14.5418L23.0013 14.8869L23.2667 15.2227L23.7077 14.8742ZM31.3979 4.38685V3.82477H31.113L30.9446 4.05447L31.3979 4.38685ZM13.9955 17.7136L13.542 18.0459L13.549 18.0551L13.9955 17.7136ZM14.0243 17.7513L13.5778 18.0928L13.5829 18.0993L14.0243 17.7513ZM10.9454 17.7674L10.5061 17.4166L10.5011 17.4231L10.9454 17.7674ZM11.0114 17.6848L11.4506 18.0355L11.4509 18.0352L11.0114 17.6848ZM12.3756 15.9739V15.4118H12.1049L11.9361 15.6235L12.3756 15.9739ZM12.3795 15.9739V16.5359H12.6504L12.8192 16.3239L12.3795 15.9739ZM12.557 15.7509L13.0101 15.4183L12.5751 14.8255L12.1172 15.4008L12.557 15.7509ZM16.215 5.57495L15.7747 5.92428L15.7793 5.93006L15.784 5.93571L16.215 5.57495ZM16.1363 5.47565L15.6959 5.82495L15.6959 5.82497L16.1363 5.47565ZM19.5747 5.36858L20.0038 5.73165L20.0221 5.71005L20.0381 5.68673L19.5747 5.36858ZM19.5503 5.39743L19.1212 5.03435L19.0984 5.06128L19.0792 5.09084L19.5503 5.39743ZM19.385 5.59992L18.9858 5.20425L18.9661 5.22411L18.9485 5.24583L19.385 5.59992ZM17.8599 7.48002L17.3955 7.79666L17.8208 8.42046L18.2965 7.83411L17.8599 7.48002ZM17.8516 7.46781L18.316 7.15118L17.8734 6.50198L17.4019 7.13057L17.8516 7.46781ZM17.8266 7.5011L17.395 7.86107L17.85 8.40677L18.2763 7.83835L17.8266 7.5011ZM23.2656 15.9779L23.7067 15.6296L23.5379 15.4158H23.2656V15.9779ZM24.6297 17.7054L24.1886 18.0538L24.1912 18.057L24.6297 17.7054ZM24.6791 17.767L25.1234 17.4226L25.1176 17.4154L24.6791 17.767ZM21.6085 17.7382L21.1742 17.3811L21.1674 17.3898L21.6085 17.7382ZM21.629 17.7132L22.0632 18.0702L22.0734 18.0578L22.0829 18.0448L21.629 17.7132ZM22.8939 15.9818V15.4197H22.6084L22.44 15.6502L22.8939 15.9818ZM22.8978 15.9818V16.5439H23.184L23.3523 16.3124L22.8978 15.9818ZM23.0753 15.7377L23.5193 15.3931L23.0607 14.8021L22.6207 15.4071L23.0753 15.7377ZM34.2083 2.79124H27.3886V3.9154H34.2083V2.79124ZM27.3886 2.79124C26.7926 2.79124 26.31 3.27462 26.31 3.87036H27.4342C27.4342 3.89469 27.4142 3.9154 27.3886 3.9154V2.79124ZM26.31 3.87036C26.31 4.46594 26.793 4.94893 27.3886 4.94893V3.82477C27.4139 3.82477 27.4342 3.84508 27.4342 3.87036H26.31ZM27.3886 4.94893H30.1164V3.82477H27.3886V4.94893ZM29.6631 4.05442L22.5893 13.699L23.4958 14.3639L30.5696 4.71928L29.6631 4.05442ZM23.4835 13.6829L19.2595 8.33886L18.3776 9.03594L22.6016 14.38L23.4835 13.6829ZM19.2416 8.31727C19.2415 8.31723 19.238 8.31318 19.2343 8.30911C19.2296 8.30389 19.222 8.29553 19.2121 8.28567C19.2023 8.2758 19.1939 8.26812 19.1886 8.26339C19.1845 8.25969 19.1804 8.25614 19.1804 8.25607L18.4401 9.10209C18.4422 9.10396 18.4398 9.10187 18.4371 9.0994C18.4332 9.09589 18.4259 9.08922 18.4171 9.08039C18.4082 9.07157 18.4016 9.06429 18.3981 9.06043C18.3957 9.05774 18.3936 9.05535 18.3955 9.05753L19.2416 8.31727ZM19.2077 8.28162L19.1955 8.26941L18.4006 9.06433L18.4128 9.07654L19.2077 8.28162ZM19.241 8.32084L18.9597 7.9608L18.0738 8.65286L18.3551 9.0129L19.241 8.32084ZM18.9529 8.66144L20.5894 6.64874L19.7172 5.93953L18.0806 7.95222L18.9529 8.66144ZM20.5937 6.64342L20.6065 6.62733L19.7257 5.92876L19.7129 5.94485L20.5937 6.64342ZM20.6002 6.6351L20.811 6.3788L19.9428 5.66469L19.732 5.92099L20.6002 6.6351ZM20.811 6.37873C20.8529 6.32784 20.8945 6.26779 20.929 6.19878L19.9235 5.69604C19.9336 5.67584 19.9419 5.66572 19.9427 5.66477L20.811 6.37873ZM20.8875 6.26861C21.3037 5.67099 21.542 4.9433 21.542 4.16605H20.4178C20.4178 4.71137 20.2512 5.21526 19.965 5.6262L20.8875 6.26861ZM21.542 4.16605C21.542 2.11157 19.8692 0.43792 17.8144 0.43792V1.56208C19.248 1.56208 20.4178 2.73217 20.4178 4.16605H21.542ZM17.8144 0.43792C15.7549 0.43792 14.0863 2.11195 14.0863 4.16605H15.2104C15.2104 2.73178 16.3767 1.56208 17.8144 1.56208V0.43792ZM14.0863 4.16605C14.0863 4.95308 14.3299 5.68367 14.744 6.28304L15.6689 5.64395C15.3807 5.22699 15.2104 4.71823 15.2104 4.16605H14.0863ZM14.7485 6.28936C14.7484 6.28924 14.7487 6.28967 14.7496 6.29092C14.7504 6.29221 14.7516 6.29398 14.7535 6.29675C14.7557 6.30012 14.7639 6.31254 14.7702 6.3219C14.7852 6.34405 14.8099 6.37952 14.8436 6.41841L15.6936 5.68278C15.7023 5.69282 15.7062 5.69916 15.7015 5.69219C15.7003 5.69048 15.6989 5.68835 15.6968 5.68517C15.6952 5.68283 15.6917 5.67753 15.6892 5.67369C15.6833 5.66493 15.6747 5.65198 15.6644 5.63763L14.7485 6.28936ZM14.8377 6.41153L15.0524 6.66783L15.9142 5.94596L15.6995 5.68966L14.8377 6.41153ZM15.0521 6.66742L16.738 8.68399L17.6005 7.96295L15.9145 5.94637L15.0521 6.66742ZM16.6071 8.32347V8.32791H17.7313V8.32347H16.6071ZM16.7325 7.97408L16.5383 8.21374L17.4118 8.9214L17.606 8.68174L16.7325 7.97408ZM16.536 8.21657L12.1512 13.701L13.0292 14.403L17.4141 8.91857L16.536 8.21657ZM13.0435 13.7196L5.95688 4.05449L5.0503 4.71921L12.1369 14.3843L13.0435 13.7196ZM5.50359 4.94893H8.33568V3.82477H5.50359V4.94893ZM8.33568 4.94893C8.93142 4.94893 9.4148 4.46633 9.4148 3.87036H8.29064C8.29064 3.84469 8.31135 3.82477 8.33568 3.82477V4.94893ZM9.4148 3.87036C9.4148 3.27423 8.93181 2.79124 8.33568 2.79124V3.9154C8.31095 3.9154 8.29064 3.89508 8.29064 3.87036H9.4148ZM8.33568 2.79124H1.51649V3.9154H8.33568V2.79124ZM1.51649 2.79124C0.920516 2.79124 0.43792 3.27462 0.43792 3.87036H1.56208C1.56208 3.89469 1.54216 3.9154 1.51649 3.9154V2.79124ZM0.43792 3.87036C0.43792 4.46594 0.920909 4.94893 1.51649 4.94893V3.82477C1.54177 3.82477 1.56208 3.84508 1.56208 3.87036H0.43792ZM1.51649 4.94893H4.22652V3.82477H1.51649V4.94893ZM3.77321 4.71918L11.4712 15.2192L12.3778 14.5546L4.67983 4.05451L3.77321 4.71918ZM11.4851 14.5364L9.77416 16.6811L10.653 17.3822L12.3639 15.2374L11.4851 14.5364ZM9.7783 16.676L9.70396 16.767L10.5745 17.4783L10.6488 17.3873L9.7783 16.676ZM9.70506 16.7656C9.66593 16.8132 9.62179 16.8746 9.58488 16.9501L10.5948 17.4438C10.5823 17.4694 10.5715 17.4819 10.5734 17.4796L9.70506 16.7656ZM9.6411 16.8585C9.2007 17.4424 8.94471 18.1728 8.94471 18.9534H10.0689C10.0689 18.4202 10.2434 17.9268 10.5386 17.5354L9.6411 16.8585ZM8.94471 18.9534C8.94471 20.9093 10.5356 22.4995 12.4909 22.4995V21.3754C11.1564 21.3754 10.0689 20.2883 10.0689 18.9534H8.94471ZM12.4909 22.4995C14.4461 22.4995 16.037 20.9093 16.037 18.9534H14.9129C14.9129 20.2883 13.8254 21.3754 12.4909 21.3754V22.4995ZM16.037 18.9534C16.037 18.1537 15.7717 17.4084 15.3067 16.8108L14.4194 17.5011C14.7322 17.9031 14.9129 18.406 14.9129 18.9534H16.037ZM15.4251 17.1559C15.4251 17.0296 15.3825 16.9364 15.37 16.9097C15.3525 16.8721 15.3171 16.8062 15.2527 16.7418L14.4578 17.5367C14.3973 17.4762 14.3659 17.4164 14.3513 17.3851C14.3418 17.3649 14.3314 17.3392 14.3225 17.3085C14.3151 17.2829 14.301 17.2279 14.301 17.1559H15.4251ZM15.3046 16.8015L15.2425 16.7189L14.3439 17.3943L14.406 17.477L15.3046 16.8015ZM15.2464 16.7241L13.6758 14.5833L12.7694 15.2482L14.34 17.3891L15.2464 16.7241ZM13.6617 15.2667L18.2163 9.56698L17.3381 8.8652L12.7835 14.5649L13.6617 15.2667ZM18.2164 9.56686L18.2825 9.4842L17.4041 8.78266L17.338 8.86532L18.2164 9.56686ZM17.4082 9.48928L17.5402 9.65072L18.4104 8.93902L18.2784 8.77758L17.4082 9.48928ZM17.5586 9.67212L17.5958 9.71317L18.4291 8.95867L18.392 8.91762L17.5586 9.67212ZM17.5716 9.68464L21.9693 15.244L22.8509 14.5465L18.4533 8.98721L17.5716 9.68464ZM21.9568 14.5629L20.3203 16.7947L21.2268 17.4594L22.8634 15.2276L21.9568 14.5629ZM20.3332 16.7778C20.3081 16.8094 20.2358 16.9011 20.2022 17.0401L21.295 17.3039C21.2826 17.3552 21.2634 17.3979 21.2446 17.4304C21.236 17.4454 21.2282 17.4568 21.2231 17.4641C21.218 17.4712 21.2144 17.4757 21.2139 17.4763L20.3332 16.7778ZM20.4319 16.7076C20.3251 16.7804 20.1699 16.9413 20.1699 17.197H21.294C21.294 17.3005 21.2642 17.4004 21.2105 17.4852C21.161 17.5634 21.1027 17.6109 21.0652 17.6364L20.4319 16.7076ZM20.2834 16.8582C19.838 17.4479 19.5873 18.1782 19.5873 18.9534H20.7115C20.7115 18.4225 20.8825 17.9302 21.1804 17.5357L20.2834 16.8582ZM19.5873 18.9534C19.5873 20.9093 21.1783 22.4995 23.1335 22.4995V21.3754C21.799 21.3754 20.7115 20.2883 20.7115 18.9534H19.5873ZM23.1335 22.4995C25.0889 22.4995 26.6791 20.9091 26.6791 18.9534H25.555C25.555 20.2884 24.4679 21.3754 23.1335 21.3754V22.4995ZM26.6791 18.9534C26.6791 18.178 26.429 17.4524 25.9882 16.8643L25.0886 17.5385C25.3846 17.9334 25.555 18.4228 25.555 18.9534H26.6791ZM26.0109 16.8969C26.0113 16.8976 26.0109 16.8969 26.0074 16.8912C26.0051 16.8873 25.9985 16.8764 25.9919 16.8659C25.9774 16.8428 25.9534 16.8059 25.9193 16.7653L25.0589 17.4888C25.0453 17.4727 25.0379 17.4605 25.0389 17.4622C25.0392 17.4626 25.0398 17.4636 25.0411 17.4657C25.0426 17.4683 25.0436 17.4699 25.0462 17.4741C25.0503 17.4809 25.0575 17.4927 25.066 17.5059L26.0109 16.8969ZM25.9283 16.7763L25.8622 16.6936L24.9838 17.3952L25.0499 17.4778L25.9283 16.7763ZM25.864 16.6959L24.1487 14.5256L23.2667 15.2227L24.9821 17.3929L25.864 16.6959ZM24.161 15.2065L31.8511 4.71923L30.9446 4.05447L23.2544 14.5418L24.161 15.2065ZM31.3979 4.94893H34.2083V3.82477H31.3979V4.94893ZM34.2083 4.94893C34.8039 4.94893 35.2869 4.46594 35.2869 3.87036H34.1627C34.1627 3.84508 34.183 3.82477 34.2083 3.82477V4.94893ZM35.2869 3.87036C35.2869 3.27462 34.8043 2.79124 34.2083 2.79124V3.9154C34.1827 3.9154 34.1627 3.89469 34.1627 3.87036H35.2869ZM12.2734 16.3144L13.5421 18.0458L14.4489 17.3814L13.1801 15.65L12.2734 16.3144ZM13.549 18.0551L13.5778 18.0928L14.4708 17.4099L14.442 17.3722L13.549 18.0551ZM13.5829 18.0993C13.7683 18.3346 13.8794 18.6308 13.8794 18.9535H15.0036C15.0036 18.3675 14.8007 17.8283 14.4658 17.4034L13.5829 18.0993ZM13.8794 18.9535C13.8794 19.7215 13.2557 20.3426 12.491 20.3426V21.4667C13.8753 21.4667 15.0036 20.3436 15.0036 18.9535H13.8794ZM12.491 20.3426C11.7262 20.3426 11.1025 19.7215 11.1025 18.9535H9.97832C9.97832 20.3436 11.1066 21.4667 12.491 21.4667V20.3426ZM11.1025 18.9535C11.1025 18.6356 11.2076 18.3466 11.3896 18.1118L10.5011 17.4231C10.1706 17.8495 9.97832 18.3794 9.97832 18.9535H11.1025ZM11.3846 18.1182L11.4506 18.0355L10.5722 17.334L10.5062 17.4167L11.3846 18.1182ZM11.4509 18.0352L12.8151 16.3243L11.9361 15.6235L10.5719 17.3344L11.4509 18.0352ZM12.3756 16.5359H12.3795V15.4118H12.3756V16.5359ZM12.8192 16.3239L12.9967 16.1009L12.1172 15.4008L11.9397 15.6238L12.8192 16.3239ZM12.1038 16.0834L12.2736 16.3147L13.1799 15.6497L13.0101 15.4183L12.1038 16.0834ZM18.1129 6.9667L16.6461 5.21419L15.784 5.93571L17.2508 7.68822L18.1129 6.9667ZM16.6554 5.22563L16.5766 5.12632L15.6959 5.82497L15.7747 5.92428L16.6554 5.22563ZM16.5766 5.12635C16.3685 4.86393 16.244 4.52764 16.244 4.16584H15.1198C15.1198 4.7871 15.3338 5.36839 15.6959 5.82495L16.5766 5.12635ZM16.244 4.16584C16.244 3.30143 16.9475 2.59485 17.8144 2.59485V1.47069C16.3247 1.47069 15.1198 2.68248 15.1198 4.16584H16.244ZM17.8144 2.59485C18.6772 2.59485 19.3849 3.30229 19.3849 4.16584H20.509C20.509 2.68163 19.2983 1.47069 17.8144 1.47069V2.59485ZM19.3849 4.16584C19.3849 4.49171 19.2844 4.79842 19.1113 5.05043L20.0381 5.68673C20.3366 5.25193 20.509 4.72427 20.509 4.16584H19.3849ZM19.1456 5.00551L19.1212 5.03435L19.9794 5.7605L20.0038 5.73165L19.1456 5.00551ZM19.0792 5.09084C19.0575 5.1242 19.0245 5.16521 18.9858 5.20425L19.7842 5.99558C19.8687 5.91036 19.9521 5.81046 20.0214 5.70402L19.0792 5.09084ZM18.9485 5.24583L17.4234 7.12593L18.2965 7.83411L19.8215 5.95401L18.9485 5.24583ZM18.3243 7.16338L18.316 7.15118L17.3872 7.78445L17.3955 7.79666L18.3243 7.16338ZM17.4019 7.13057L17.377 7.16385L18.2763 7.83835L18.3013 7.80506L17.4019 7.13057ZM18.2583 7.14113L18.1135 6.96749L17.2502 7.68743L17.395 7.86107L18.2583 7.14113ZM23.2617 16.54H23.2656V15.4158H23.2617V16.54ZM22.8244 16.3262L24.1886 18.0538L25.0709 17.3571L23.7067 15.6296L22.8244 16.3262ZM24.1912 18.057L24.2406 18.1186L25.1176 17.4154L25.0683 17.3538L24.1912 18.057ZM24.2349 18.1114C24.4169 18.3462 24.522 18.6351 24.522 18.9531H25.6462C25.6462 18.379 25.4539 17.8491 25.1234 17.4227L24.2349 18.1114ZM24.522 18.9531C24.522 19.7211 23.8983 20.3421 23.1335 20.3421V21.4663C24.5179 21.4663 25.6462 20.3432 25.6462 18.9531H24.522ZM23.1335 20.3421C22.3685 20.3421 21.7445 19.7209 21.7445 18.9531H20.6203C20.6203 20.3434 21.7494 21.4663 23.1335 21.4663V20.3421ZM21.7445 18.9531C21.7445 18.6294 21.8581 18.329 22.0496 18.0865L21.1674 17.3898C20.8296 17.8175 20.6203 18.3603 20.6203 18.9531H21.7445ZM22.0426 18.0951L22.0632 18.0702L21.1948 17.3562L21.1743 17.3812L22.0426 18.0951ZM22.0829 18.0448L23.3477 16.3133L22.44 15.6502L21.1751 17.3816L22.0829 18.0448ZM22.8939 16.5439H22.8978V15.4197H22.8939V16.5439ZM23.3523 16.3124L23.5299 16.0683L22.6207 15.4071L22.4432 15.6512L23.3523 16.3124ZM22.6312 16.0823L22.8176 16.3225L23.7057 15.6333L23.5193 15.3931L22.6312 16.0823Z" fill="#2F83DE"/>
</svg>
